HIERARCHY
ROOT Hips
{
	OFFSET 0.00000 0.00000 0.00000
	CHANNELS 6 Xposition Yposition Zposition Zrotation Yrotation Xrotation 
	JOINT LHipJoint
	{
		OFFSET 0 0 0
		CHANNELS 3 Zrotation Yrotation Xrotation
		JOINT LeftUpLeg
		{
			OFFSET 1.37590 -1.78394 0.89329
			CHANNELS 3 Zrotation Yrotation Xrotation
			JOINT LeftLeg
			{
				OFFSET 2.47928 -6.81178 0.00000
				CHANNELS 3 Zrotation Yrotation Xrotation
				JOINT LeftFoot
				{
					OFFSET 2.63345 -7.23535 0.00000
					CHANNELS 3 Zrotation Yrotation Xrotation
					JOINT LeftToeBase
					{
						OFFSET 0.23938 -0.65768 2.27012
						CHANNELS 3 Zrotation Yrotation Xrotation
						End Site
						{
							OFFSET 0.00000 -0.00000 1.18363
						}
					}
				}
			}
		}
	}
	JOINT RHipJoint
	{
		OFFSET 0 0 0
		CHANNELS 3 Zrotation Yrotation Xrotation
		JOINT RightUpLeg
		{
			OFFSET -1.33617 -1.78394 0.89329
			CHANNELS 3 Zrotation Yrotation Xrotation
			JOINT RightLeg
			{
				OFFSET -2.56922 -7.05888 0.00000
				CHANNELS 3 Zrotation Yrotation Xrotation
				JOINT RightFoot
				{
					OFFSET -2.56568 -7.04915 0.00000
					CHANNELS 3 Zrotation Yrotation Xrotation
					JOINT RightToeBase
					{
						OFFSET -0.27533 -0.75646 2.18105
						CHANNELS 3 Zrotation Yrotation Xrotation
						End Site
						{
							OFFSET -0.00000 -0.00000 1.15233
						}
					}
				}
			}
		}
	}
	JOINT LowerBack
	{
		OFFSET 0 0 0
		CHANNELS 3 Zrotation Yrotation Xrotation
		JOINT Spine
		{
			OFFSET 0.06190 2.15152 -0.00935
			CHANNELS 3 Zrotation Yrotation Xrotation
			JOINT Spine1
			{
				OFFSET 0.06334 2.15332 0.00872
				CHANNELS 3 Zrotation Yrotation Xrotation
				JOINT Neck
				{
					OFFSET 0 0 0
					CHANNELS 3 Zrotation Yrotation Xrotation
					JOINT Neck1
					{
						OFFSET -0.04202 1.66908 0.23524
						CHANNELS 3 Zrotation Yrotation Xrotation
						JOINT Head
						{
							OFFSET 0.07510 1.69357 -0.24440
							CHANNELS 3 Zrotation Yrotation Xrotation
							End Site
							{
								OFFSET 0.02556 1.71719 -0.11000
							}
						}
					}
				}
				JOINT LeftShoulder
				{
					OFFSET 0 0 0
					CHANNELS 3 Zrotation Yrotation Xrotation
					JOINT LeftArm
					{
						OFFSET 3.67168 1.26306 -0.41342
						CHANNELS 3 Zrotation Yrotation Xrotation
						JOINT LeftForeArm
						{
							OFFSET 4.68510 -0.00000 -0.00000
							CHANNELS 3 Zrotation Yrotation Xrotation
							JOINT LeftHand
							{
								OFFSET 3.39626 -0.00000 -0.00000
								CHANNELS 3 Zrotation Yrotation Xrotation
								JOINT LeftFingerBase
								{
									OFFSET 0 0 0
									CHANNELS 3 Zrotation Yrotation Xrotation
									JOINT LeftHandIndex1
									{
										OFFSET 0.48608 -0.00000 -0.00000
										CHANNELS 3 Zrotation Yrotation Xrotation
										End Site
										{
											OFFSET 0.39189 -0.00000 -0.00000
										}
									}
								}
								JOINT LThumb
								{
									OFFSET 0 0 0
									CHANNELS 3 Zrotation Yrotation Xrotation
									End Site
									{
										OFFSET 0.39787 -0.00000 0.39787
									}
								}
							}
						}
					}
				}
				JOINT RightShoulder
				{
					OFFSET 0 0 0
					CHANNELS 3 Zrotation Yrotation Xrotation
					JOINT RightArm
					{
						OFFSET -3.04136 1.42992 -0.76390
						CHANNELS 3 Zrotation Yrotation Xrotation
						JOINT RightForeArm
						{
							OFFSET -5.55576 -0.00000 -0.00000
							CHANNELS 3 Zrotation Yrotation Xrotation
							JOINT RightHand
							{
								OFFSET -3.32774 -0.00000 -0.00000
								CHANNELS 3 Zrotation Yrotation Xrotation
								JOINT RightFingerBase
								{
									OFFSET 0 0 0
									CHANNELS 3 Zrotation Yrotation Xrotation
									JOINT RightHandIndex1
									{
										OFFSET -0.50763 -0.00000 -0.00000
										CHANNELS 3 Zrotation Yrotation Xrotation
										End Site
										{
											OFFSET -0.40926 -0.00000 -0.00000
										}
									}
								}
								JOINT RThumb
								{
									OFFSET 0 0 0
									CHANNELS 3 Zrotation Yrotation Xrotation
									End Site
									{
										OFFSET -0.41551 -0.00000 0.41551
									}
								}
							}
						}
					}
				}
			}
		}
	}
}
MOTION
Frames: 15
Frame Time: 0.0689655
0.00 0.00 0.00 0 0 0 0 0 0 -21 0 0 0 0 0 0 0 0 0 0 0 0 0 0 21 0 0 0 0 0 0 0 0 0 0 0 0 0 0 0 0 0 0 0 0 0 0 -16 0 0 21 0 0 11 0 0 0 -8 0 0 0 0 0 0 0 0 0 0 0 0 0 0 0 0 0 0 0 0 8 0 0 0 0 0 0 0 0 0 0 0 0 0 0 0 0 0
0.00 0.00 0.00 -66.4124 -88.6149 72.1317 0.0000 0.0000 0.0000 -20.1816 -8.9795 -2.5185 0.7277 5.4506 15.1984 0.4709 -2.6847 -12.3181 0.1324 -2.3458 -6.4622 0.0000 0.0000 0.0000 15.6698 1.2759 -35.8975 -5.3000 -13.7139 42.1032 0.5656 -15.2489 -13.8561 -0.0762 -1.7807 4.9000 -0.0012 0.3145 -0.1008 0.2451 0.4110 -1.8475 0.2456 0.2023 -1.8371 -6.1370 -3.2131 -12.3214 2.5561 -3.5885 10.8307 1.4971 -1.8306 5.4425 0.0000 -0.0000 0.0000 -83.6407 -36.8025 35.4899 45.6574 -51.0865 -22.7491 -0.0000 0.0000 -13.8339 20.0380 32.0033 10.9398 -7.1250 0.0000 -0.0000 -14.6564 63.0294 -6.4872 0.0000 -0.0000 0.0000 60.4543 41.5610 16.5376 -70.7064 58.5457 -43.3728 0.0000 -0.0000 -16.6665 -13.9838 -25.3903 6.0949 7.1250 -0.0000 -0.0000 16.7943 -55.2472 -4.3143
0.00 0.00 0.00 -53.7305 -88.9376 60.4169 0.0000 0.0000 0.0000 -20.7283 -8.3746 -0.8043 0.6699 5.2340 14.5773 0.6126 -3.0349 -14.0625 0.1233 -2.2635 -6.2345 0.0000 0.0000 0.0000 13.7612 4.1592 -35.1709 -2.0924 -9.0560 25.9708 0.8131 -15.8233 -7.8040 -0.1024 -2.0636 5.6813 -0.2494 0.0645 -0.1396 0.3946 0.0768 -1.8875 0.5429 0.0402 -1.8555 -5.7002 -3.1128 -12.5503 2.6855 -3.5344 10.8793 1.4695 -1.7749 5.4873 0.0000 -0.0000 0.0000 -85.2787 -35.8367 36.1623 48.8433 -52.5182 -25.2533 -0.0000 0.0000 -13.6321 19.2365 30.3105 9.9880 -7.1250 0.0000 -0.0000 -14.2988 61.1783 -5.7004 0.0000 -0.0000 0.0000 58.4007 40.0866 16.5626 -71.7573 58.7044 -44.2701 0.0000 -0.0000 -15.0361 -14.9475 -24.7549 6.3785 7.1250 -0.0000 -0.0000 15.4869 -54.8184 -3.8027
0.00 0.00 0.00 -42.1487 -88.4674 51.0160 0.0000 0.0000 0.0000 -18.1145 -7.1721 6.4132 1.3658 7.3968 20.8964 0.2677 -4.9774 -9.3173 1.7682 -8.3655 -23.8298 0.0000 0.0000 0.0000 14.9736 10.5412 -31.7263 -1.2513 -7.0921 19.9885 0.5676 -13.4041 -2.5156 -0.2394 -3.1485 8.6926 -0.3900 -0.6933 -0.5752 2.4567 -0.9285 -1.8487 2.7473 -0.4535 -1.5258 -7.3145 -3.3488 -12.9475 1.9800 -3.4567 12.3761 1.5013 -1.8834 6.0439 0.0000 0.0000 0.0000 -78.4850 -28.2694 32.4597 40.5370 -48.3849 -18.8397 -0.0000 -0.0000 5.6021 23.0349 15.9407 6.6606 -7.1250 0.0000 -0.0000 -4.4845 47.1726 -0.2409 0.0000 0.0000 0.0000 72.7897 13.7780 29.2200 -30.5466 41.3573 -11.7691 0.0000 0.0000 1.2462 -16.7208 -30.0931 8.5659 7.1250 -0.0000 -0.0000 16.8982 -60.3598 -6.4383
0.00 0.00 0.00 -47.3660 -85.6994 56.2296 0.0000 0.0000 0.0000 -13.9711 -8.7689 0.8724 3.5244 11.4992 33.9824 0.0611 -1.3374 5.3638 1.5004 -7.7369 -21.9179 0.0000 0.0000 0.0000 20.1053 10.1107 -26.2497 -1.2810 -7.1725 20.2274 0.4992 -12.4048 -4.4167 -0.8846 -5.9954 16.7710 1.8651 -1.3413 -0.4949 4.0450 -1.8075 -1.8721 3.1287 -0.9332 -1.5707 -7.3108 -3.1389 -12.8485 1.2128 -3.0752 12.3363 1.2928 -1.7609 5.9865 -0.0000 0.0000 0.0000 -76.9492 -19.0836 38.4381 24.2404 -35.4174 -7.8454 -0.0000 -0.0000 23.1835 17.5564 18.1013 5.6141 -7.1250 0.0000 -0.0000 -10.2377 48.6322 -0.9261 -0.0000 0.0000 0.0000 79.3310 4.2695 21.8046 -17.9614 28.1077 -4.5310 0.0000 0.0000 8.0616 -17.7973 -31.3966 9.4939 7.1250 -0.0000 -0.0000 16.6996 -61.8706 -6.9602
0.00 0.00 0.00 -46.1388 -82.5324 54.0630 0.0000 0.0000 0.0000 -9.7649 -9.3808 -8.2413 7.3307 15.6042 50.1144 0.4785 3.0948 12.3726 0.1713 -2.6664 -7.3513 0.0000 0.0000 0.0000 25.2662 8.6146 -19.9729 -1.2537 -7.0984 20.0073 0.4506 -12.6003 -9.3959 -0.7079 -5.3776 14.9888 4.3415 -2.0131 0.0062 5.4287 -2.7271 -1.3973 3.1952 -1.4403 -1.3763 -6.7092 -3.1210 -12.7433 1.0537 -3.1524 12.5137 1.1393 -1.7864 6.0146 -0.0000 0.0000 0.0000 -81.3652 -10.2406 35.2018 12.5566 -20.6340 -2.2946 -0.0000 -0.0000 42.8646 8.6523 13.9547 2.1016 -7.1250 0.0000 -0.0000 -17.0484 43.4138 0.6887 -0.0000 0.0000 0.0000 82.9048 -2.9156 6.9963 -9.1873 15.4585 -1.2496 0.0000 0.0000 18.1734 -11.6476 -27.1363 5.3712 7.1250 -0.0000 -0.0000 20.1807 -56.4410 -5.8268
0.00 0.00 0.00 -49.4692 -82.3893 56.8328 0.0000 0.0000 0.0000 -8.4912 -7.6800 -15.8837 9.4537 17.0910 57.6463 0.0884 1.7188 5.2811 0.3163 -3.6152 -9.9965 0.0000 0.0000 0.0000 27.4845 7.1927 -14.7721 -1.0646 -6.5599 18.4178 0.2830 -11.7336 -11.8256 -0.6071 -4.9872 13.8719 4.7329 -1.7891 0.0022 5.7463 -2.4780 -0.8529 3.2887 -1.3176 -0.8204 -6.0884 -3.2259 -12.8062 1.3027 -3.4434 12.7124 1.0904 -1.8796 6.0906 -0.0000 -0.0000 0.0000 -87.7498 -4.4413 2.8463 6.8538 -11.6783 -0.7017 -0.0000 -0.0000 56.8369 8.6618 18.1017 2.7099 -7.1250 0.0000 -0.0000 -18.5011 47.3881 -1.1271 -0.0000 -0.0000 0.0000 84.7728 -8.2198 -6.8182 -6.6545 11.3493 -0.6620 0.0000 0.0000 33.4294 -9.3928 -24.9564 3.9925 7.1250 -0.0000 -0.0000 21.0916 -53.9688 -4.8147
0.00 0.00 0.00 -83.0244 -82.5320 90.5241 0.0000 0.0000 0.0000 -6.3737 -3.0770 -30.8557 7.1300 15.4404 49.3645 0.3073 -0.2511 -10.3858 0.6848 -5.2907 -14.7396 0.0000 0.0000 0.0000 31.4990 4.8708 -4.3212 -0.6107 -5.0017 13.9134 -0.1312 -8.6217 -14.5145 -0.3118 -3.5899 9.9256 6.7696 0.2654 0.2566 5.4741 0.2422 -0.3651 1.8500 0.0326 -0.5094 -6.0678 -3.7377 -12.7060 2.7950 -4.3733 12.8588 1.4758 -2.2114 6.1858 -0.0000 0.0000 0.0000 -94.4133 14.9248 -15.1349 7.4074 -12.5878 -0.8181 -0.0000 -0.0000 43.9909 11.1072 18.2084 3.5105 -7.1250 0.0000 -0.0000 -16.3029 47.8223 -1.1644 -0.0000 0.0000 0.0000 85.9518 -15.4107 -4.2049 -8.2307 13.9261 -1.0069 0.0000 0.0000 22.9368 -4.6110 -24.1470 1.8897 7.1250 -0.0000 -0.0000 25.1900 -52.3829 -4.8274
0.00 0.00 0.00 -90.9950 -81.7135 99.5207 0.0000 0.0000 0.0000 -5.0705 -4.6323 -32.8301 3.3427 11.2301 33.0600 0.2660 3.4059 -11.6076 0.7135 -5.3981 -15.0477 0.0000 0.0000 0.0000 32.7164 4.3336 -1.4028 -0.5344 -4.6844 13.0105 -0.2439 -7.8524 -15.2959 -0.1287 -2.3126 6.3704 7.2679 0.7954 -0.2717 5.3233 0.9005 -0.5178 1.4201 0.3594 -0.3485 -6.3654 -3.9013 -13.1713 3.2478 -4.5931 13.4482 1.6374 -2.2963 6.4808 -0.0000 0.0000 0.0000 -96.1151 19.0004 -18.7472 7.1651 -12.1906 -0.7661 -0.0000 -0.0000 47.0806 8.3630 17.8606 2.5816 -7.1250 0.0000 -0.0000 -18.6777 47.1188 -1.0106 -0.0000 0.0000 0.0000 84.0774 -11.5402 -5.2813 -7.9521 13.4753 -0.9409 0.0000 0.0000 25.3981 -7.5618 -25.5003 3.2709 7.1250 -0.0000 -0.0000 23.1901 -54.1350 -5.4298
0.00 0.00 0.00 -97.7929 -81.1636 107.2410 0.0000 0.0000 0.0000 -2.9587 -8.7289 -30.6565 0.9484 6.2022 17.3723 -0.0880 7.5020 -8.4396 0.6116 -5.0054 -13.9239 0.0000 0.0000 0.0000 32.9028 4.0264 0.1194 -0.5628 -4.8052 13.3537 -0.3764 -6.2710 -15.5720 -0.0215 -0.9472 2.6036 7.3832 1.1919 -0.9705 5.0674 1.3710 -0.7229 1.1042 0.5975 -0.1456 -6.6559 -3.9657 -13.6078 3.5835 -4.6580 13.8620 1.7775 -2.3129 6.7068 0.0000 0.0000 0.0000 -96.6962 19.4694 -20.7892 6.9544 -11.8442 -0.7223 -0.0000 -0.0000 49.7486 6.8260 16.9683 2.0008 -7.1250 0.0000 -0.0000 -19.7141 46.0765 -0.5448 0.0000 0.0000 0.0000 82.5059 -7.2527 -3.9841 -8.3601 14.1348 -1.0383 0.0000 0.0000 23.8788 -10.9870 -27.2630 5.0821 7.1250 -0.0000 -0.0000 20.9263 -56.4251 -6.0473
0.00 0.00 0.00 -118.6710 -80.3096 126.9300 0.0000 0.0000 0.0000 -4.3875 -10.9706 -29.7636 1.2265 7.0239 19.7862 -0.1172 6.1235 -3.1864 0.2347 -3.1182 -8.6079 0.0000 0.0000 0.0000 30.6586 4.1448 3.5907 -2.2605 -9.3889 27.0195 -0.4514 -3.1975 -14.2668 -0.8266 5.8006 -16.2071 7.0840 1.8586 -1.0475 3.3941 2.3410 -1.0533 -0.4476 1.0959 -0.3544 -5.0991 -2.7707 -14.1547 3.6606 -3.4293 16.0463 1.6702 -1.6449 7.4141 -0.0000 -0.0000 0.0000 -93.0022 9.5585 3.6471 8.6086 -14.5344 -1.0998 -0.0000 -0.0000 37.4916 8.5627 19.1225 2.8238 -7.1250 0.0000 -0.0000 -19.0062 48.3450 -1.6228 -0.0000 -0.0000 0.0000 79.7372 4.3052 11.8333 -16.4831 26.1713 -3.8566 0.0000 0.0000 4.5281 -19.0601 -29.7371 9.7246 7.1250 -0.0000 -0.0000 14.0993 -60.5749 -5.4166
0.00 0.00 0.00 -117.8560 -82.2139 124.0780 0.0000 0.0000 0.0000 -9.1417 -9.3432 -25.7865 1.7424 8.3076 23.6522 -0.0016 2.1447 -2.9321 0.0186 0.8816 2.4231 0.0000 0.0000 0.0000 26.6399 1.4384 -2.8077 -5.3248 -13.7405 42.2076 0.2228 -8.9251 0.1342 -0.3759 3.9375 -10.9010 5.8506 1.2665 -0.0696 2.8927 1.6923 -1.4266 -0.3175 0.7626 -1.3468 -4.2493 -2.3215 -14.5312 3.8227 -3.1109 17.7996 1.6184 -1.4356 8.0317 -0.0000 -0.0000 0.0000 -89.1870 2.2286 19.6894 10.8338 -18.0331 -1.7241 -0.0000 -0.0000 32.4323 8.0448 19.7859 2.7392 -7.1250 0.0000 -0.0000 -19.7667 48.8986 -1.9710 -0.0000 -0.0000 0.0000 78.6262 5.9604 17.9612 -21.0493 31.8859 -6.0760 0.0000 0.0000 3.2369 -19.3004 -28.2755 9.4193 7.1250 -0.0000 -0.0000 12.9062 -59.1931 -4.5221
0.00 0.00 0.00 -127.2990 -85.4248 131.6150 0.0000 0.0000 0.0000 -15.3527 -8.1245 -19.3163 1.7283 8.2756 23.5542 0.1124 -0.2872 -6.2354 0.0155 0.8038 2.2090 0.0000 0.0000 0.0000 21.2252 -0.3744 -11.9852 -9.5665 -17.1588 58.0296 0.9195 -21.2801 6.3261 -0.0420 -1.3235 3.6393 2.9776 0.3723 0.7542 2.4958 0.5543 -1.6844 0.8796 0.2302 -2.1482 -3.2839 -1.3247 -14.7978 3.1399 -1.8737 19.0372 1.3742 -0.8602 8.4230 0.0000 0.0000 0.0000 -79.2157 -2.9414 43.3706 19.7584 -30.3502 -5.4088 -0.0000 -0.0000 25.5924 9.8318 17.7613 3.0262 -7.1250 0.0000 -0.0000 -17.3040 47.2183 -0.9753 0.0000 0.0000 0.0000 76.8074 7.5237 24.3680 -25.6392 36.8502 -8.6703 0.0000 0.0000 4.5010 -17.2527 -24.3936 7.3089 7.1250 -0.0000 -0.0000 12.9750 -54.9091 -3.1976
0.00 0.00 0.00 -116.5690 -88.0038 119.3970 0.0000 0.0000 0.0000 -19.6936 -5.5407 -8.0379 1.0290 6.4525 18.1032 0.2651 -1.8761 -9.2528 0.0046 0.4403 1.2099 0.0000 0.0000 0.0000 17.9930 -0.0185 -25.0381 -11.4882 -18.1658 64.3570 1.2867 -19.6164 -6.3592 -0.2300 -3.0869 8.5207 0.6749 -0.7342 0.4214 3.6038 -0.9683 -1.7099 3.3487 -0.4895 -1.9403 -1.5374 0.1732 -14.1020 2.4916 -0.0588 18.1415 1.0663 0.0575 7.9343 -0.0000 0.0000 0.0000 -50.8875 -14.7328 47.0184 42.7526 -49.6188 -20.5121 -0.0000 -0.0000 27.5410 22.1966 14.9080 5.9925 -7.1250 0.0000 -0.0000 -5.0623 45.9597 -0.1202 -0.0000 0.0000 0.0000 73.0926 8.1654 28.8627 -31.3728 42.0414 -12.3187 0.0000 0.0000 6.5759 -13.3782 -19.7437 4.5934 7.1250 -0.0000 -0.0000 14.7696 -49.6480 -1.7261
0.00 0.00 0.00 -118.5540 -89.1786 121.6540 0.0000 0.0000 0.0000 -21.7741 -4.3447 -2.6095 0.7525 5.5405 15.4568 0.3949 -1.7595 -11.3894 0.0007 -0.1664 -0.4571 0.0000 0.0000 0.0000 15.9292 1.7739 -31.0560 -8.2338 -16.2886 53.4005 0.8731 -17.4991 -13.4713 -0.1045 -2.0842 5.7384 -1.1385 -1.2735 0.4258 4.6657 -1.7196 -1.7391 5.5004 -0.8390 -1.8526 -0.6849 0.8107 -13.8882 2.8110 0.6513 15.9857 1.0892 0.4938 7.1756 -0.0000 -0.0000 0.0000 -28.5831 -19.9104 28.0064 47.9678 -52.1423 -24.5603 -0.0000 -0.0000 21.7280 26.4964 15.5912 7.6312 -7.1250 0.0000 -0.0000 -1.1227 47.2936 -0.0635 -0.0000 -0.0000 0.0000 70.5700 7.5505 27.9500 -32.4025 42.8657 -13.0138 0.0000 0.0000 6.0610 -12.8204 -19.0180 4.2411 7.1250 -0.0000 -0.0000 15.0164 -48.8538 -1.4573
